<svg width="1200" height="580" xmlns="http://www.w3.org/2000/svg" version="1.1" class="topography-shape js-shape">

 <g>
  <title>Layer 1</title>
  <path id="svg_1" fill-rule="nonzero" fill="#FFFA72" d="m443.7411,-147.9813c-28.692,61.724 -23.266,100.422 16.275,116.094c59.313,23.508 200.347,32.911 259.299,83.906c58.95,50.994 238.697,11.572 269.438,-75.95c30.741,-87.522 86.09,-222.422 -205.771,-222.422c-194.576,0 -307.654,32.79 -339.24,98.372l-0.001,0z"/>
  <path id="svg_2" transform="translate(-1800 60) scale(2.8 2.8) skewX(30)" fill-rule="nonzero" fill=" rgb(214, 242, 255)" d="m668.30122,-30.75418c-28.692,61.724 -23.266,100.422 16.275,116.094c59.313,23.508 200.347,32.911 259.299,83.906c58.95,50.994 238.697,11.572 269.438,-75.95c30.741,-87.522 86.09,-222.422 -205.771,-222.422c-194.576,0 -307.654,32.79 -339.24,98.372l-0.001,0z"/>
  <path id="svg_3" transform="translate(-1650 55) scale(2.65 2.65) skewX(27.5)" fill-rule="nonzero" fill=" rgb(199, 225, 243)" d="m660.64293,-34.44056c-28.692,61.724 -23.266,100.422 16.275,116.094c59.313,23.508 200.347,32.911 259.299,83.906c58.95,50.994 238.697,11.572 269.438,-75.95c30.741,-87.522 86.09,-222.422 -205.771,-222.422c-194.576,0 -307.654,32.79 -339.24,98.372l-0.001,0z"/>
  <path id="svg_4" transform="translate(-1500 50) scale(2.5 2.5) skewX(25)" fill-rule="nonzero" fill=" rgb(184, 207, 230)" d="m652.24974,-38.56932c-28.692,61.724 -23.266,100.422 16.275,116.094c59.313,23.508 200.347,32.911 259.299,83.906c58.95,50.994 238.697,11.572 269.438,-75.95c30.741,-87.522 86.09,-222.422 -205.771,-222.422c-194.576,0 -307.654,32.79 -339.24,98.372l-0.001,0z"/>
  <path id="svg_5" transform="translate(-1350 45) scale(2.35 2.35) skewX(22.5)" fill-rule="nonzero" fill=" rgb(169, 190, 218)" d="m642.95309,-43.22515c-28.692,61.724 -23.266,100.422 16.275,116.094c59.313,23.508 200.347,32.911 259.299,83.906c58.95,50.994 238.697,11.572 269.438,-75.95c30.741,-87.522 86.09,-222.422 -205.771,-222.422c-194.576,0 -307.654,32.79 -339.24,98.372l-0.001,0z"/>
  <path id="svg_6" transform="translate(-1200 40) scale(2.2 2.2) skewX(20)" fill-rule="nonzero" fill=" rgb(154, 173, 206)" d="m632.54213,-48.51586c-28.692,61.724 -23.266,100.422 16.275,116.094c59.313,23.508 200.347,32.911 259.299,83.906c58.95,50.994 238.697,11.572 269.438,-75.95c30.741,-87.522 86.09,-222.422 -205.771,-222.422c-194.576,0 -307.654,32.79 -339.24,98.372l-0.001,0z"/>
  <path id="svg_7" transform="translate(-1050 35) scale(2.05 2.05) skewX(17.5)" fill-rule="nonzero" fill=" rgb(139, 155, 193)" d="m620.74742,-54.58083c-28.692,61.724 -23.266,100.422 16.275,116.094c59.313,23.508 200.347,32.911 259.299,83.906c58.95,50.994 238.697,11.572 269.438,-75.95c30.741,-87.522 86.09,-222.422 -205.771,-222.422c-194.576,0 -307.654,32.79 -339.24,98.372l-0.001,0z"/>
  <path id="svg_8" transform="translate(-900 30) scale(1.9 1.9) skewX(15)" fill-rule="nonzero" fill=" rgb(125, 138, 181)" d="m607.21728,-61.60342c-28.692,61.724 -23.266,100.422 16.275,116.094c59.313,23.508 200.347,32.911 259.299,83.906c58.95,50.994 238.697,11.572 269.438,-75.95c30.741,-87.522 86.09,-222.422 -205.771,-222.422c-194.576,0 -307.654,32.79 -339.24,98.372l-0.001,0z"/>
  <path id="svg_9" transform="translate(-750 25) scale(1.75 1.75) skewX(12.5)" fill-rule="nonzero" fill=" rgb(110, 121, 169)" d="m591.48177,-69.82989c-28.692,61.724 -23.266,100.422 16.275,116.094c59.313,23.508 200.347,32.911 259.299,83.906c58.95,50.994 238.697,11.572 269.438,-75.95c30.741,-87.522 86.09,-222.422 -205.771,-222.422c-194.576,0 -307.654,32.79 -339.24,98.372l-0.001,0z"/>
  <path id="svg_10" transform="translate(-600 20) scale(1.6 1.6) skewX(10)" fill-rule="nonzero" fill=" rgb(95, 103, 156)" d="m572.89694,-79.59881c-28.692,61.724 -23.266,100.422 16.275,116.094c59.313,23.508 200.347,32.911 259.299,83.906c58.95,50.994 238.697,11.572 269.438,-75.95c30.741,-87.522 86.09,-222.422 -205.771,-222.422c-194.576,0 -307.654,32.79 -339.24,98.372l-0.001,0z"/>
  <path id="svg_11" transform="translate(-450 15) scale(1.45 1.45) skewX(7.5)" fill-rule="nonzero" fill=" rgb(80, 86, 144)" d="m550.55416,-91.38889c-28.692,61.724 -23.266,100.422 16.275,116.094c59.313,23.508 200.347,32.911 259.299,83.906c58.95,50.994 238.697,11.572 269.438,-75.95c30.741,-87.522 86.09,-222.422 -205.771,-222.422c-194.576,0 -307.654,32.79 -339.24,98.372l-0.001,0z"/>
  <path id="svg_12" transform="translate(-300 10) scale(1.3 1.3) skewX(5)" fill-rule="nonzero" fill=" rgb(65, 69, 132)" d="m523.12695,-105.89977c-28.692,61.724 -23.266,100.422 16.275,116.094c59.313,23.508 200.347,32.911 259.299,83.906c58.95,50.994 238.697,11.572 269.438,-75.95c30.741,-87.522 86.09,-222.422 -205.771,-222.422c-194.576,0 -307.654,32.79 -339.24,98.372l-0.001,0z"/>
  <path id="svg_13" transform="translate(-150 5) scale(1.15 1.15) skewX(2.5)" fill-rule="nonzero" fill=" rgb(50, 51, 119)" d="m488.59814,-124.19609c-28.692,61.724 -23.266,100.422 16.275,116.094c59.313,23.508 200.347,32.911 259.299,83.906c58.95,50.994 238.697,11.572 269.438,-75.95c30.741,-87.522 86.09,-222.422 -205.771,-222.422c-194.576,0 -307.654,32.79 -339.24,98.372l-0.001,0z"/>
  <path id="svg_14" transform="translate(-1800 60) scale(2.8 2.8) skewX(30)" fill-rule="nonzero" fill=" rgb(214, 242, 255)" d="m668.30122,-30.75418c-28.692,61.724 -23.266,100.422 16.275,116.094c59.313,23.508 200.347,32.911 259.299,83.906c58.95,50.994 238.697,11.572 269.438,-75.95c30.741,-87.522 86.09,-222.422 -205.771,-222.422c-194.576,0 -307.654,32.79 -339.24,98.372l-0.001,0z"/>
  <path id="svg_15" transform="translate(-1650 55) scale(2.65 2.65) skewX(27.5)" fill-rule="nonzero" fill=" rgb(199, 225, 243)" d="m660.64293,-34.44056c-28.692,61.724 -23.266,100.422 16.275,116.094c59.313,23.508 200.347,32.911 259.299,83.906c58.95,50.994 238.697,11.572 269.438,-75.95c30.741,-87.522 86.09,-222.422 -205.771,-222.422c-194.576,0 -307.654,32.79 -339.24,98.372l-0.001,0z"/>
  <path id="svg_16" transform="translate(-1500 50) scale(2.5 2.5) skewX(25)" fill-rule="nonzero" fill=" rgb(184, 207, 230)" d="m652.24974,-38.56932c-28.692,61.724 -23.266,100.422 16.275,116.094c59.313,23.508 200.347,32.911 259.299,83.906c58.95,50.994 238.697,11.572 269.438,-75.95c30.741,-87.522 86.09,-222.422 -205.771,-222.422c-194.576,0 -307.654,32.79 -339.24,98.372l-0.001,0z"/>
  <path id="svg_17" transform="translate(-1350 45) scale(2.35 2.35) skewX(22.5)" fill-rule="nonzero" fill=" rgb(169, 190, 218)" d="m642.95309,-43.22515c-28.692,61.724 -23.266,100.422 16.275,116.094c59.313,23.508 200.347,32.911 259.299,83.906c58.95,50.994 238.697,11.572 269.438,-75.95c30.741,-87.522 86.09,-222.422 -205.771,-222.422c-194.576,0 -307.654,32.79 -339.24,98.372l-0.001,0z"/>
  <path id="svg_18" transform="translate(-1200 40) scale(2.2 2.2) skewX(20)" fill-rule="nonzero" fill=" rgb(154, 173, 206)" d="m636.18915,-51.18969c-28.692,61.724 -23.266,100.422 16.275,116.094c59.313,23.508 200.347,32.911 259.299,83.906c58.95,50.994 238.697,11.572 269.438,-75.95c30.741,-87.522 86.09,-222.422 -205.771,-222.422c-194.576,0 -307.654,32.79 -339.24,98.372l-0.001,0z"/>
  <path id="svg_19" transform="translate(-1050 35) scale(2.05 2.05) skewX(17.5)" fill-rule="nonzero" fill=" rgb(139, 155, 193)" d="m618.86032,-53.14609c-28.692,61.724 -23.266,100.422 16.275,116.094c59.313,23.508 200.347,32.911 259.299,83.906c58.95,50.994 238.697,11.572 269.438,-75.95c30.741,-87.522 86.09,-222.422 -205.771,-222.422c-194.576,0 -307.654,32.79 -339.24,98.372l-0.001,0z"/>
  <path id="svg_20" transform="translate(-900 30) scale(1.9 1.9) skewX(15)" fill-rule="nonzero" fill=" rgb(125, 138, 181)" d="m607.21728,-61.60342c-28.692,61.724 -23.266,100.422 16.275,116.094c59.313,23.508 200.347,32.911 259.299,83.906c58.95,50.994 238.697,11.572 269.438,-75.95c30.741,-87.522 86.09,-222.422 -205.771,-222.422c-194.576,0 -307.654,32.79 -339.24,98.372l-0.001,0z"/>
  <path id="svg_21" transform="translate(-750 25) scale(1.75 1.75) skewX(12.5)" fill-rule="nonzero" fill=" rgb(110, 121, 169)" d="m585.76749,-69.82989c-28.692,61.724 -23.266,100.422 16.275,116.094c59.313,23.508 200.347,32.911 259.299,83.906c58.95,50.994 238.697,11.572 269.438,-75.95c30.741,-87.522 86.09,-222.422 -205.771,-222.422c-194.576,0 -307.654,32.79 -339.24,98.372l-0.001,0z"/>
  <path id="svg_22" transform="translate(-600 20) scale(1.6 1.6) skewX(10)" fill-rule="nonzero" fill=" rgb(95, 103, 156)" d="m572.89694,-79.59881c-28.692,61.724 -23.266,100.422 16.275,116.094c59.313,23.508 200.347,32.911 259.299,83.906c58.95,50.994 238.697,11.572 269.438,-75.95c30.741,-87.522 86.09,-222.422 -205.771,-222.422c-194.576,0 -307.654,32.79 -339.24,98.372l-0.001,0z"/>
  <path id="svg_23" transform="translate(-450 15) scale(1.45 1.45) skewX(7.5)" fill-rule="nonzero" fill=" rgb(80, 86, 144)" d="m553.11667,-95.44573c-28.692,61.724 -23.266,100.422 16.275,116.094c59.313,23.508 200.347,32.911 259.299,83.906c58.95,50.994 238.697,11.572 269.438,-75.95c30.741,-87.522 86.09,-222.422 -205.771,-222.422c-194.576,0 -307.654,32.79 -339.24,98.372l-0.001,0z"/>
  <path id="svg_24" transform="translate(-300 10) scale(1.3 1.3) skewX(5)" fill-rule="nonzero" fill=" rgb(65, 69, 132)" d="m523.12695,-105.89977c-28.692,61.724 -23.266,100.422 16.275,116.094c59.313,23.508 200.347,32.911 259.299,83.906c58.95,50.994 238.697,11.572 269.438,-75.95c30.741,-87.522 86.09,-222.422 -205.771,-222.422c-194.576,0 -307.654,32.79 -339.24,98.372l-0.001,0z"/>
  <path id="svg_25" transform="translate(-150 5) scale(1.15 1.15) skewX(2.5)" fill-rule="nonzero" fill=" rgb(50, 51, 119)" d="m488.59814,-124.19609c-28.692,61.724 -23.266,100.422 16.275,116.094c59.313,23.508 200.347,32.911 259.299,83.906c58.95,50.994 238.697,11.572 269.438,-75.95c30.741,-87.522 86.09,-222.422 -205.771,-222.422c-194.576,0 -307.654,32.79 -339.24,98.372l-0.001,0z"/>
 </g>
</svg>